<svg width="55" height="54" viewBox="0 0 55 54" fill="none" xmlns="http://www.w3.org/2000/svg">
  <path d="M7.44656 25.4655C7.44869 25.468 7.45059 25.4708 7.45281 25.4731C7.45312 25.4735 7.45336 25.4738 7.45368 25.4742L26.9132 46.9905C27.0582 47.1508 27.278 47.2509 27.5 47.2509C27.7212 47.2509 27.9406 47.152 28.0867 46.9905L47.5462 25.4742C47.5465 25.4739 47.5468 25.4735 47.5471 25.4731C47.5493 25.4707 47.5511 25.468 47.5533 25.4655C47.8069 25.1771 47.8135 24.7535 47.5834 24.4584C47.5812 24.4555 47.5795 24.4523 47.5772 24.4495L41.2489 16.5391C41.0989 16.3514 40.8715 16.2422 40.6312 16.2422C37.4064 16.2422 16.9927 16.2422 14.3687 16.2422C14.1284 16.2422 13.9011 16.3514 13.751 16.5391L7.42267 24.4495C7.42037 24.4523 7.41879 24.4555 7.4165 24.4584C7.18401 24.7566 7.19588 25.1804 7.44656 25.4655ZM23.2015 17.8243H31.7983L35.5953 24.1526H19.4045L23.2015 17.8243ZM19.221 25.7347H35.7787L27.4999 44.5002L19.221 25.7347ZM37.508 25.7347H45.1775L30.2037 42.2909L37.508 25.7347ZM17.4918 25.7347L24.796 42.2909L9.82229 25.7347H17.4918ZM45.3136 24.1526H37.4402L33.6432 17.8243H40.2509L45.3136 24.1526ZM14.7488 17.8243H21.3565L17.5595 24.1526H9.68615L14.7488 17.8243Z" fill="white" stroke="white" stroke-width="0.3" />
  <path d="M27.5 13.0783C27.9369 13.0783 28.291 12.7242 28.291 12.2873V7.54104C28.291 7.10415 27.9369 6.75 27.5 6.75C27.0631 6.75 26.709 7.10415 26.709 7.54104V12.2873C26.709 12.7242 27.0631 13.0783 27.5 13.0783Z" fill="white" stroke="white" stroke-width="0.3" />
  <path d="M32.8055 12.8467L35.9697 9.6825C36.2786 9.3736 36.2786 8.87272 35.9697 8.56374C35.6608 8.25476 35.1599 8.25484 34.8509 8.56374L31.6868 11.7279C31.3779 12.0368 31.3779 12.5377 31.6868 12.8467C31.9957 13.1556 32.4965 13.1556 32.8055 12.8467Z" fill="white" stroke="white" stroke-width="0.3" />
  <path d="M22.1927 12.8466C22.5016 13.1555 23.0025 13.1555 23.3115 12.8466C23.6204 12.5377 23.6204 12.0368 23.3115 11.7279L20.1473 8.56371C19.8384 8.25481 19.3376 8.25481 19.0286 8.56371C18.7196 8.87261 18.7197 9.37349 19.0286 9.68247L22.1927 12.8466Z" fill="white" stroke="white" stroke-width="0.3" />
</svg>