<svg width="33" height="32" viewBox="0 0 33 32" fill="none" xmlns="http://www.w3.org/2000/svg">
  <g clip-path="url(#clip0_2914_2736)">
    <path d="M1.11378 15.698L8.93934 19.7832C9.24201 19.9396 9.59936 19.9284 9.8887 19.751L16.8542 15.5095L12.6381 19.4228C12.4234 19.6225 12.3008 19.9075 12.3008 20.2077V29.7398C12.3008 30.7453 13.5261 31.1685 14.1008 30.3697L17.4836 25.6588L25.8492 30.649C26.4358 31.0023 27.1879 30.6476 27.3239 29.9451L32.5413 2.71069C32.6974 1.89227 31.92 1.22468 31.1973 1.52914L1.19645 13.7846C0.391094 14.1142 0.339092 15.2944 1.11378 15.698ZM30.2213 4.17716L25.6358 28.1113L17.7089 23.3823C17.2769 23.1239 16.7209 23.2384 16.4142 23.663L14.3008 26.6057V20.6784L25.7025 10.0975C26.6052 9.26091 25.5678 7.7735 24.5371 8.40757L9.35002 17.6561L4.0272 14.8782L30.2213 4.17716Z" fill="#63BFBE" />
  </g>
  <defs>
    <clipPath id="clip0_2914_2736">
      <rect width="32" height="32" fill="white" transform="translate(0.561523)" />
    </clipPath>
  </defs>
</svg>