<svg width="33" height="32" viewBox="0 0 33 32" fill="none" xmlns="http://www.w3.org/2000/svg">
  <g clip-path="url(#clip0_2914_2738)">
    <path d="M16.5615 0.121094C7.81885 0.121094 0.682649 7.25667 0.682649 16C0.682649 18.7596 1.4983 21.5576 3.04587 24.1193L0.735992 30.6377C0.6169 30.9745 0.700637 31.3492 0.951846 31.6029C1.12924 31.7827 1.36867 31.8789 1.61305 31.8789C1.71416 31.8789 1.81588 31.8627 1.9145 31.8286L8.49928 29.5746C11.03 31.1042 13.7399 31.8789 16.5615 31.8789C20.7862 31.8789 24.7696 30.2228 27.7766 27.2151C30.7843 24.208 32.4404 20.2246 32.4404 16C32.4404 7.25729 25.3048 0.121094 16.5615 0.121094ZM16.5615 30.0181C13.957 30.0181 11.4524 29.2607 9.11645 27.7671C8.9651 27.6703 8.79081 27.6207 8.61527 27.6207C8.51417 27.6207 8.41182 27.6375 8.31382 27.671L3.13333 29.4449L4.94948 24.319C5.045 24.0486 5.01089 23.749 4.85644 23.5071C3.34298 21.1408 2.54346 18.5443 2.54346 16C2.54346 8.27019 8.83175 1.9819 16.5615 1.9819C24.2913 1.9819 30.5796 8.27019 30.5796 16C30.5796 23.7298 24.2913 30.0181 16.5615 30.0181Z" fill="#63BFBE" />
    <path d="M26.2803 19.8101L23.3247 16.8552C22.952 16.4818 22.4557 16.2764 21.9285 16.2764C21.4007 16.2764 20.9045 16.4818 20.5317 16.8552L19.7929 17.5939C19.5734 17.8129 19.2824 17.9332 18.9729 17.9332C18.6634 17.9332 18.3719 17.8129 18.1529 17.5939L15.1973 14.6383C14.7458 14.1861 14.7458 13.4511 15.1973 12.9989L15.9367 12.2602C16.3095 11.8868 16.5148 11.3906 16.5148 10.8633C16.5148 10.3355 16.3095 9.83928 15.9367 9.4665L12.9811 6.51091C12.2107 5.74115 10.9578 5.74115 10.1874 6.51091L9.44868 7.24965C8.39112 8.30721 8.0388 10.5402 8.52882 13.0771C9.05853 15.8218 10.4349 18.4182 12.4043 20.3876C14.373 22.3563 16.9695 23.7327 19.7148 24.263C21.5582 24.6191 24.2235 24.6606 25.5416 23.3426L26.2803 22.6038C26.6537 22.231 26.859 21.7348 26.859 21.207C26.8591 20.6797 26.6537 20.1835 26.2803 19.8101ZM24.9647 21.2882L24.226 22.027C23.7211 22.5319 22.1301 22.8346 20.0671 22.4357C18.6864 22.169 16.026 21.3776 13.7199 19.0714C11.4137 16.7652 10.6222 14.1049 10.3555 12.7242C10.2277 12.0623 10.1719 11.4495 10.1719 10.9055C10.1719 9.75244 10.4219 8.90888 10.7643 8.56587L11.5036 7.82712C11.526 7.80479 11.5551 7.79363 11.5843 7.79363C11.6134 7.79363 11.6432 7.80479 11.6655 7.82712L14.6205 10.7821C14.6428 10.8044 14.654 10.8317 14.654 10.8633C14.654 10.895 14.6428 10.9217 14.6205 10.944L13.8818 11.6833C12.7045 12.8606 12.7045 14.7766 13.8818 15.9539L16.8373 18.9095C17.4074 19.4801 18.166 19.794 18.9729 19.794C19.7793 19.794 20.5379 19.4801 21.1085 18.9095L21.8473 18.1708C21.8919 18.1261 21.9645 18.1261 22.0092 18.1708L24.9647 21.1263C24.9871 21.1487 24.9982 21.176 24.9982 21.207C24.9983 21.2386 24.9871 21.2659 24.9647 21.2882Z" fill="#63BFBE" />
  </g>
  <defs>
    <clipPath id="clip0_2914_2738">
      <rect width="32" height="32" fill="white" transform="translate(0.561523)" />
    </clipPath>
  </defs>
</svg>