<svg width="33" height="32" viewBox="0 0 33 32" fill="none" xmlns="http://www.w3.org/2000/svg">
  <path d="M25.4486 1.59961H7.67363C4.634 1.59961 2.16113 4.07247 2.16113 7.11211V24.8871C2.16113 27.9267 4.634 30.3996 7.67363 30.3996H16.5611C16.8718 30.3996 17.1236 30.1478 17.1236 29.8371V25.4777C17.1236 25.1671 16.8718 24.9152 16.5611 24.9152C16.2505 24.9152 15.9986 25.1671 15.9986 25.4777V29.2746H7.67363C5.25438 29.2746 3.28613 27.3064 3.28613 24.8871V7.11211C3.28613 4.69285 5.25438 2.72461 7.67363 2.72461H25.4486C27.8679 2.72461 29.8361 4.69285 29.8361 7.11211V24.8871C29.8361 27.3064 27.8679 29.2746 25.4486 29.2746H21.8486V19.3465H25.1101C25.399 19.3465 25.6408 19.1277 25.6698 18.8403L26.0742 14.821C26.0902 14.6628 26.0384 14.5053 25.9318 14.3874C25.8251 14.2695 25.6735 14.2022 25.5146 14.2022H21.8486V12.0916C21.8486 11.7096 21.9703 11.5676 22.2976 11.5676H25.4893C25.8 11.5676 26.0518 11.3158 26.0518 11.0051V7.08674C26.0518 6.77607 25.8 6.52424 25.4893 6.52424H21.2977C18.9227 6.52424 17.6631 7.56745 17.0247 8.44259C16.1319 9.66648 15.9986 11.1119 15.9986 11.8645V14.2274H13.2423C12.9317 14.2274 12.6798 14.4792 12.6798 14.7899V18.784C12.6798 19.0947 12.9317 19.3465 13.2423 19.3465H15.9986V20.9496C15.9986 21.2603 16.2504 21.5121 16.5611 21.5121C16.8717 21.5121 17.1236 21.2603 17.1236 20.9496V18.784C17.1236 18.4733 16.8717 18.2215 16.5611 18.2215H13.8048V15.3523H16.5611C16.8717 15.3523 17.1236 15.1005 17.1236 14.7898V11.8644C17.1236 10.597 17.5303 7.64918 21.2977 7.64918H24.9268V10.4426H22.2976C21.5715 10.4426 20.7236 10.8744 20.7236 12.0916V14.7646C20.7236 15.0753 20.9755 15.3271 21.2861 15.3271H24.8926L24.6013 18.2215H21.2861C20.9755 18.2215 20.7236 18.4733 20.7236 18.784V29.8371C20.7236 30.1478 20.9755 30.3996 21.2861 30.3996H25.4486C28.4883 30.3996 30.9611 27.9267 30.9611 24.8871V7.11211C30.9611 4.07247 28.4883 1.59961 25.4486 1.59961Z" fill="#63BFBE" />
  <path d="M16.5611 24.9152C16.8718 24.9152 17.1236 25.1671 17.1236 25.4777L17.1236 20.9496C17.1236 21.2603 16.8717 21.5121 16.5611 21.5121C16.2504 21.5121 15.9986 21.2603 15.9986 20.9496L15.9986 25.4777C15.9986 25.1671 16.2505 24.9152 16.5611 24.9152Z" fill="#63BFBE" />
  <path d="M17.1236 25.4777V29.8371C17.1236 30.1478 16.8718 30.3996 16.5611 30.3996H7.67363C4.634 30.3996 2.16113 27.9267 2.16113 24.8871V7.11211C2.16113 4.07247 4.634 1.59961 7.67363 1.59961H25.4486C28.4883 1.59961 30.9611 4.07247 30.9611 7.11211V24.8871C30.9611 27.9267 28.4883 30.3996 25.4486 30.3996H21.2861C20.9755 30.3996 20.7236 30.1478 20.7236 29.8371V18.784C20.7236 18.4733 20.9755 18.2215 21.2861 18.2215H24.6013L24.8926 15.3271H21.2861C20.9755 15.3271 20.7236 15.0753 20.7236 14.7646V12.0916C20.7236 10.8744 21.5715 10.4426 22.2976 10.4426H24.9268V7.64918H21.2977C17.5303 7.64918 17.1236 10.597 17.1236 11.8644V14.7898C17.1236 15.1005 16.8717 15.3523 16.5611 15.3523H13.8048V18.2215H16.5611C16.8717 18.2215 17.1236 18.4733 17.1236 18.784V20.9496M17.1236 25.4777C17.1236 25.1671 16.8718 24.9152 16.5611 24.9152C16.2505 24.9152 15.9986 25.1671 15.9986 25.4777M17.1236 25.4777L17.1236 20.9496M15.9986 25.4777V29.2746H7.67363C5.25438 29.2746 3.28613 27.3064 3.28613 24.8871V7.11211C3.28613 4.69285 5.25438 2.72461 7.67363 2.72461H25.4486C27.8679 2.72461 29.8361 4.69285 29.8361 7.11211V24.8871C29.8361 27.3064 27.8679 29.2746 25.4486 29.2746H21.8486V19.3465H25.1101C25.399 19.3465 25.6408 19.1277 25.6698 18.8403L26.0742 14.821C26.0902 14.6628 26.0384 14.5053 25.9318 14.3874C25.8251 14.2695 25.6735 14.2022 25.5146 14.2022H21.8486V12.0916C21.8486 11.7096 21.9703 11.5676 22.2976 11.5676H25.4893C25.8 11.5676 26.0518 11.3158 26.0518 11.0051V7.08674C26.0518 6.77607 25.8 6.52424 25.4893 6.52424H21.2977C18.9227 6.52424 17.6631 7.56745 17.0247 8.44259C16.1319 9.66648 15.9986 11.1119 15.9986 11.8645V14.2274H13.2423C12.9317 14.2274 12.6798 14.4792 12.6798 14.7899V18.784C12.6798 19.0947 12.9317 19.3465 13.2423 19.3465H15.9986V20.9496M15.9986 25.4777L15.9986 20.9496M15.9986 20.9496C15.9986 21.2603 16.2504 21.5121 16.5611 21.5121C16.8717 21.5121 17.1236 21.2603 17.1236 20.9496" stroke="#63BFBE" stroke-width="0.5" />
</svg>