<svg width="33" height="32" viewBox="0 0 33 32" fill="none" xmlns="http://www.w3.org/2000/svg">
  <path d="M26.6183 20.8804L26.3329 20.4142C25.7751 19.5031 25.1 18.6677 24.3264 17.931L23.3722 17.0224C23.2815 16.936 23.2679 16.7988 23.3398 16.6963L24.6428 14.8396C24.8307 14.5718 25.0041 14.2899 25.1582 14.0015L26.2716 11.9182C26.4657 11.5552 26.4553 11.1275 26.2438 10.7742C26.0324 10.421 25.6604 10.2098 25.2487 10.2094L22.8387 10.2066H22.8372C22.3323 10.2066 21.8751 10.5052 21.6722 10.9676L21.4169 11.5492C20.7656 13.0332 19.8767 14.3862 18.7738 15.5725V11.3264C18.7738 10.7086 18.2712 10.2061 17.6536 10.2061H14.2403C13.6798 10.2061 13.2239 10.662 13.2239 11.2225C13.2239 11.4365 13.2899 11.6416 13.4146 11.8153L13.6535 12.148C13.8876 12.4741 14.0114 12.8586 14.0114 13.2601V16.3628C13.5905 15.874 13.078 15.2101 12.6441 14.4469C11.9797 13.278 11.5035 11.915 11.2788 11.2065C11.089 10.6081 10.5397 10.2061 9.91204 10.2061H7.47113C7.12666 10.2061 6.80986 10.3636 6.60173 10.6382C6.39378 10.9128 6.32802 11.2606 6.42145 11.5923L6.87679 13.2083C7.15585 14.199 7.53948 15.1633 8.01698 16.0747C8.02578 16.0898 8.03481 16.1052 8.04406 16.1209C8.20041 16.3613 8.51697 16.4477 8.77624 16.3119C9.05148 16.1677 9.15762 15.8277 9.01345 15.5526C8.57217 14.7102 8.21763 13.8189 7.95966 12.9033L7.51669 11.3311H9.9121C10.0473 11.3311 10.1656 11.4177 10.2065 11.5467C10.4446 12.2972 10.9508 13.7443 11.6661 15.0027C12.2531 16.0352 12.9651 16.8954 13.4592 17.4352C13.7299 17.7309 14.1464 17.8283 14.5202 17.6829C14.8945 17.5375 15.1364 17.1841 15.1364 16.7826V13.2601C15.1364 12.6218 14.9396 12.0103 14.5674 11.4918L14.4519 11.3311H17.6488V15.842C17.6488 16.172 17.8145 16.4755 18.0921 16.6539C18.3697 16.8324 18.7146 16.8571 19.0148 16.72L19.2467 16.6142C19.3536 16.5655 19.4485 16.4974 19.529 16.412C20.7497 15.1157 21.7315 13.6317 22.4471 12.0013L22.7024 11.4196C22.7258 11.3661 22.7788 11.3316 22.8372 11.3316L25.2474 11.3343C25.2556 11.3343 25.2681 11.3344 25.2786 11.352C25.2893 11.3698 25.2834 11.3807 25.2795 11.3879L24.1661 13.4712C24.0333 13.7197 23.8839 13.9626 23.722 14.1933L22.419 16.05C22.0246 16.6121 22.0992 17.3636 22.5964 17.8371L23.5506 18.7458C24.2534 19.415 24.8667 20.174 25.3735 21.0016L25.6589 21.4679C25.6658 21.4791 25.6866 21.5132 25.6606 21.5596C25.6346 21.606 25.5946 21.606 25.5815 21.606H23.5009C23.2335 21.606 22.9733 21.4961 22.7869 21.3045L20.7065 19.1653C20.2162 18.6612 19.594 18.3149 18.9071 18.1642C18.5993 18.0965 18.2815 18.1711 18.0357 18.3688C17.7899 18.5665 17.6489 18.8607 17.6489 19.1761V21.278C17.6489 21.4589 17.5017 21.6061 17.3208 21.6061C15.7086 21.6061 14.1154 21.0666 12.8347 20.0872C12.3188 19.6926 11.8267 19.2574 11.3722 18.7937C11.3572 18.7802 11.3421 18.7664 11.3271 18.7524C11.108 18.5725 10.7839 18.5828 10.5767 18.7859C10.3548 19.0034 10.3514 19.3596 10.5688 19.5814C11.0606 20.083 11.593 20.5538 12.1512 20.9807C13.627 22.1095 15.4629 22.7311 17.3207 22.7311C18.122 22.7311 18.7738 22.0792 18.7738 21.278V19.2893C19.2022 19.4037 19.5896 19.6305 19.9 19.9497L21.9804 22.0889C22.3773 22.497 22.9315 22.7311 23.5009 22.7311H25.5815C26.021 22.7311 26.4274 22.4929 26.6421 22.1095C26.8568 21.7262 26.8477 21.2552 26.6183 20.8804Z" fill="#63BFBE" />
  <path d="M8.77624 16.3119C8.51697 16.4477 8.20041 16.3613 8.04406 16.1209C8.54487 16.9736 9.70689 18.7865 10.5688 19.5814C10.3514 19.3596 10.3548 19.0034 10.5767 18.7859C10.7839 18.5828 11.108 18.5725 11.3271 18.7524C10.3643 17.8596 9.38672 16.2538 9.01345 15.5526C9.15762 15.8277 9.05148 16.1677 8.77624 16.3119Z" fill="#63BFBE" />
  <path d="M9.01345 15.5526C9.15762 15.8277 9.05148 16.1677 8.77624 16.3119C8.51697 16.4477 8.20041 16.3613 8.04406 16.1209M9.01345 15.5526C8.57217 14.7102 8.21763 13.8189 7.95966 12.9033L7.51669 11.3311H9.9121C10.0473 11.3311 10.1656 11.4177 10.2065 11.5467C10.4446 12.2972 10.9508 13.7443 11.6661 15.0027C12.2531 16.0352 12.9651 16.8954 13.4592 17.4352C13.7299 17.7309 14.1464 17.8283 14.5202 17.6829C14.8945 17.5375 15.1364 17.1841 15.1364 16.7826V13.2601C15.1364 12.6218 14.9396 12.0103 14.5674 11.4918L14.4519 11.3311H17.6488V15.842C17.6488 16.172 17.8145 16.4755 18.0921 16.6539C18.3697 16.8324 18.7146 16.8571 19.0148 16.72L19.2467 16.6142C19.3536 16.5655 19.4485 16.4974 19.529 16.412C20.7497 15.1157 21.7315 13.6317 22.4471 12.0013L22.7024 11.4196C22.7258 11.3661 22.7788 11.3316 22.8372 11.3316L25.2474 11.3343C25.2556 11.3343 25.2681 11.3344 25.2786 11.352C25.2893 11.3698 25.2834 11.3807 25.2795 11.3879L24.1661 13.4712C24.0333 13.7197 23.8839 13.9626 23.722 14.1933L22.419 16.05C22.0246 16.6121 22.0992 17.3636 22.5964 17.8371L23.5506 18.7458C24.2534 19.415 24.8667 20.174 25.3735 21.0016L25.6589 21.4679C25.6658 21.4791 25.6866 21.5132 25.6606 21.5596C25.6346 21.606 25.5946 21.606 25.5815 21.606H23.5009C23.2335 21.606 22.9733 21.4961 22.7869 21.3045L20.7065 19.1653C20.2162 18.6612 19.594 18.3149 18.9071 18.1642C18.5993 18.0965 18.2815 18.1711 18.0357 18.3688C17.7899 18.5665 17.6489 18.8607 17.6489 19.1761V21.278C17.6489 21.4589 17.5017 21.6061 17.3208 21.6061C15.7086 21.6061 14.1154 21.0666 12.8347 20.0872C12.3188 19.6926 11.8267 19.2574 11.3722 18.7937C11.3572 18.7802 11.3421 18.7664 11.3271 18.7524M9.01345 15.5526C9.38672 16.2538 10.3643 17.8596 11.3271 18.7524M10.5688 19.5814C10.3514 19.3596 10.3548 19.0034 10.5767 18.7859C10.7839 18.5828 11.108 18.5725 11.3271 18.7524M10.5688 19.5814C11.0606 20.083 11.593 20.5538 12.1512 20.9807C13.627 22.1095 15.4629 22.7311 17.3207 22.7311C18.122 22.7311 18.7738 22.0792 18.7738 21.278V19.2893C19.2022 19.4037 19.5896 19.6305 19.9 19.9497L21.9804 22.0889C22.3773 22.497 22.9315 22.7311 23.5009 22.7311H25.5815C26.021 22.7311 26.4274 22.4929 26.6421 22.1095C26.8568 21.7262 26.8477 21.2552 26.6183 20.8804L26.3329 20.4142C25.7751 19.5031 25.1 18.6677 24.3264 17.931L23.3722 17.0224C23.2815 16.936 23.2679 16.7988 23.3398 16.6963L24.6428 14.8396C24.8307 14.5718 25.0041 14.2899 25.1582 14.0015L26.2716 11.9182C26.4657 11.5552 26.4553 11.1275 26.2438 10.7742C26.0324 10.421 25.6604 10.2098 25.2487 10.2094L22.8387 10.2066H22.8372C22.3323 10.2066 21.8751 10.5052 21.6722 10.9676L21.4169 11.5492C20.7656 13.0332 19.8767 14.3862 18.7738 15.5725V11.3264C18.7738 10.7086 18.2712 10.2061 17.6536 10.2061H14.2403C13.6798 10.2061 13.2239 10.662 13.2239 11.2225C13.2239 11.4365 13.2899 11.6416 13.4146 11.8153L13.6535 12.148C13.8876 12.4741 14.0114 12.8586 14.0114 13.2601V16.3628C13.5905 15.874 13.078 15.2101 12.6441 14.4469C11.9797 13.278 11.5035 11.915 11.2788 11.2065C11.089 10.6081 10.5397 10.2061 9.91204 10.2061H7.47113C7.12666 10.2061 6.80986 10.3636 6.60173 10.6382C6.39378 10.9128 6.32802 11.2606 6.42145 11.5923L6.87679 13.2083C7.15585 14.199 7.53948 15.1633 8.01698 16.0747C8.02578 16.0898 8.03481 16.1052 8.04406 16.1209M10.5688 19.5814C9.70689 18.7865 8.54487 16.9736 8.04406 16.1209" stroke="#63BFBE" stroke-width="0.4" />
  <path d="M27.2486 1.59961H5.87363C3.82653 1.59961 2.16113 3.265 2.16113 5.31211V26.6871C2.16113 28.7342 3.82653 30.3996 5.87363 30.3996H27.2486C29.2957 30.3996 30.9611 28.7342 30.9611 26.6871V5.31211C30.9611 3.265 29.2957 1.59961 27.2486 1.59961ZM29.8361 26.6871C29.8361 28.1138 28.6754 29.2746 27.2486 29.2746H5.87363C4.44691 29.2746 3.28613 28.1138 3.28613 26.6871V5.31211C3.28613 3.88538 4.44691 2.72461 5.87363 2.72461H27.2486C28.6754 2.72461 29.8361 3.88538 29.8361 5.31211V26.6871Z" fill="#63BFBE" stroke="#63BFBE" stroke-width="0.4" />
</svg>