<svg width="21" height="20" viewBox="0 0 21 20" fill="none" xmlns="http://www.w3.org/2000/svg">
  <path d="M14.4419 19C12.3274 19 10.2266 18.1851 8.64589 16.6043L4.19448 12.153C1.42993 9.38847 1.00773 5.03283 3.19065 1.7963C3.49252 1.34863 3.97969 1.0617 4.52712 1.00898C5.09897 0.953796 5.66 1.15474 6.06541 1.56015L8.6458 4.14059C9.38217 4.87692 9.38217 6.07506 8.6458 6.81143L7.75554 7.70169C7.50948 7.94779 7.50948 8.3459 7.75554 8.592L12.2069 13.0434C12.4523 13.2888 12.8517 13.2888 13.0972 13.0434L13.9875 12.1531C14.7238 11.4168 15.9219 11.4167 16.6583 12.1531L19.2387 14.7335C19.644 15.1388 19.845 15.6995 19.7899 16.2717C19.7372 16.8191 19.4502 17.3063 19.0026 17.6081C17.6166 18.5429 16.0254 19 14.4419 19ZM4.64782 2.26219C4.54688 2.27188 4.35891 2.31578 4.23443 2.50027C2.3878 5.23826 2.74545 8.92338 5.08474 11.2627L9.53611 15.7141C11.8755 18.0534 15.5606 18.411 18.2986 16.5643C18.4831 16.4398 18.5269 16.2519 18.5367 16.1509C18.5556 15.9543 18.4869 15.7622 18.3484 15.6236L15.768 13.0432C15.5226 12.7978 15.1232 12.7978 14.8778 13.0432L13.9875 13.9335C13.2511 14.6698 12.053 14.6699 11.3167 13.9335L6.86527 9.48218C6.12723 8.74422 6.12706 7.54947 6.86527 6.81134L7.75554 5.92108C8.00101 5.67561 8.00101 5.27624 7.75554 5.03077L5.17514 2.45041C5.03694 2.31221 4.8449 2.24322 4.64782 2.26219Z" fill="#ACACAC" />
</svg>