<svg width="21" height="20" viewBox="0 0 21 20" fill="none" xmlns="http://www.w3.org/2000/svg">
  <path d="M18.2988 3H3.29884C2.47154 3 1.79883 3.67271 1.79883 4.50001V15C1.79883 15.8273 2.47154 16.5 3.29884 16.5H18.2989C19.1261 16.5 19.7988 15.8273 19.7988 15V4.50001C19.7988 3.67271 19.1261 3 18.2988 3ZM3.29884 3.74999H18.2989C18.3541 3.74999 18.4028 3.77013 18.4547 3.78152C17.156 4.97005 12.8499 8.90938 11.343 10.2671C11.2251 10.3733 11.0351 10.5 10.7989 10.5C10.5626 10.5 10.3726 10.3733 10.2543 10.2667C8.74753 8.90924 4.44121 4.9697 3.14278 3.78159C3.19474 3.7702 3.24354 3.74999 3.29884 3.74999ZM2.54882 15V4.50001C2.54882 4.42654 2.57096 4.35988 2.59079 4.29273C3.58473 5.20243 6.58932 7.95109 8.53754 9.72272C6.59565 11.3908 3.59029 14.2401 2.58844 15.1955C2.57075 15.1317 2.54882 15.0693 2.54882 15ZM18.2988 15.75H3.29884C3.23893 15.75 3.18567 15.7291 3.12974 15.7158C4.16498 14.7289 7.18948 11.8631 9.09723 10.2311C9.34593 10.4567 9.57311 10.6624 9.75219 10.8237C10.0613 11.1028 10.4231 11.25 10.7988 11.25C11.1746 11.25 11.5364 11.1028 11.8451 10.8241C12.0242 10.6627 12.2516 10.4568 12.5004 10.2311C14.4083 11.863 17.4324 14.7285 18.4679 15.7158C18.412 15.7291 18.3588 15.75 18.2988 15.75ZM19.0488 15C19.0488 15.0693 19.0269 15.1317 19.0093 15.1955C18.007 14.2396 15.002 11.3906 13.0601 9.72275C15.0084 7.95113 18.0126 5.20271 19.0069 4.29266C19.0267 4.35981 19.0488 4.4265 19.0488 4.49998V15Z" fill="#ACACAC" stroke="#ACACAC" stroke-width="0.3" />
</svg>