<svg width="19" height="18" viewBox="0 0 19 18" fill="none" xmlns="http://www.w3.org/2000/svg">
  <path d="M9.79883 0C4.82827 0 0.798828 4.02944 0.798828 9C0.798828 13.9706 4.82827 18 9.79883 18C14.7694 18 18.7988 13.9706 18.7988 9C18.7936 4.03166 14.7672 0.00531111 9.79883 0ZM9.79883 16.7143C5.53834 16.7143 2.08453 13.2605 2.08453 9C2.08453 4.73951 5.53834 1.2857 9.79883 1.2857C14.0593 1.2857 17.5131 4.73951 17.5131 9C17.5085 13.2586 14.0574 16.7097 9.79883 16.7143Z" fill="#ACACAC" />
  <path d="M9.96581 3.21427C9.61076 3.21427 9.32294 3.50209 9.32294 3.85714V8.35716H4.82296C4.46791 8.35716 4.18009 8.64498 4.18009 9.00003C4.18009 9.35509 4.46791 9.64286 4.82296 9.64286H9.96581C10.3209 9.64286 10.6087 9.35505 10.6087 9V3.85714C10.6087 3.50209 10.3209 3.21427 9.96581 3.21427Z" fill="#ACACAC" />
</svg>