<svg width="23" height="22" viewBox="0 0 23 22" fill="none" xmlns="http://www.w3.org/2000/svg">
  <path d="M12.2255 1.09961C7.74427 1.09961 4.09863 4.74524 4.09863 9.22651C4.09863 10.7018 4.76026 12.2884 4.78799 12.3554C5.00168 12.8626 5.42332 13.6504 5.72736 14.1122L11.2995 20.3551C11.5276 20.7012 11.8651 20.8996 12.2255 20.8996C12.586 20.8996 12.9235 20.7012 13.1515 20.3556L18.7242 14.1122C19.0287 13.6504 19.4499 12.8626 19.6636 12.3554C19.6913 12.2889 20.3524 10.7023 20.3524 9.22651C20.3524 4.74524 16.7068 1.09961 12.2255 1.09961ZM18.782 11.9844C18.5913 12.439 18.1988 13.1719 17.9258 13.5859L12.3532 19.8292C12.2432 19.9961 12.2083 19.9961 12.0984 19.8292L6.52571 13.5859C6.25274 13.1719 5.86026 12.4385 5.66952 11.9839C5.66139 11.9643 5.05474 10.5039 5.05474 9.22651C5.05474 5.27253 8.27156 2.05572 12.2255 2.05572C16.1795 2.05572 19.3963 5.27253 19.3963 9.22651C19.3963 10.5058 18.7882 11.9701 18.782 11.9844Z" fill="#ACACAC" stroke="#ACACAC" stroke-width="0.4" />
  <path d="M12.2253 4.9248C9.85275 4.9248 7.92285 6.85518 7.92285 9.22728C7.92285 11.5994 9.85275 13.5298 12.2253 13.5298C14.5979 13.5298 16.5278 11.5994 16.5278 9.22728C16.5278 6.85518 14.5979 4.9248 12.2253 4.9248ZM12.2253 12.5737C10.3805 12.5737 8.87896 11.0726 8.87896 9.22728C8.87896 7.382 10.3805 5.88091 12.2253 5.88091C14.0701 5.88091 15.5717 7.382 15.5717 9.22728C15.5717 11.0726 14.0701 12.5737 12.2253 12.5737Z" fill="#ACACAC" stroke="#ACACAC" stroke-width="0.4" />
</svg>